<?xml version="1.0" encoding="iso-8859-1"?>
<!-- Uploaded to: SVG Repo, www.svgrepo.com, Generator: SVG Repo Mixer Tools -->
<svg fill="#000000" height="800px" width="800px" version="1.1" id="Layer_1" xmlns="http://www.w3.org/2000/svg" xmlns:xlink="http://www.w3.org/1999/xlink" 
	 viewBox="0 0 512 512" xml:space="preserve">
<g>
	<g>
		<path d="M356.195,244.924h-37.246c-7.587,0-14.097-5.166-15.939-12.304c-0.137-1.16-21.759-184.006-22.374-188.924
			C277.521,18.784,256.233,0,231.118,0L55.608,0.001c-27.624,0-50.098,22.474-50.098,50.098c0,18.567,0,394.253,0,411.915
			C5.511,489.637,27.985,512,55.608,512h79.554c19.098,0,36.267-10.5,44.81-27.582l9.23-18.462l9.231,18.462
			C206.975,501.5,224.145,512,243.243,512h213.148c27.624,0,50.098-22.363,50.098-49.986c0-7.05,0-59.717,0-66.796
			C506.489,312.15,439.269,244.924,356.195,244.924z M272.567,259.549c1.133,9.084-5.252,17.489-14.543,18.648
			c-9.039,1.158-17.447-5.325-18.59-14.495c-0.008-0.058-0.015-0.116-0.023-0.173l-2.514-18.717h33.937L272.567,259.549z
			 M266.648,211.525h-34.265l-4.513-33.51h34.864C264.107,189.851,265.432,201.303,266.648,211.525z M258.876,144.728h-35.52
			l-4.513-33.51h36.171C255.461,114.993,255.173,112.583,258.876,144.728z M231.118,33.398c8.304,0,15.342,6.203,16.375,14.432
			l3.565,30.101h-36.728l-6.018-44.532H231.118z M38.909,313.398c38.064,7.758,66.797,41.497,66.797,81.818v16.699H38.909V313.398z
			 M150.1,469.482c-2.847,5.694-8.57,9.231-14.937,9.231H55.608c-9.208,0-16.699-7.491-16.699-16.699v-16.811
			c13.102,0,102.506,0,123.273,0L150.1,469.482z M473.091,462.014c0,9.208-7.491,16.699-16.699,16.699H243.243
			c-6.366,0-12.089-3.537-14.937-9.231l-12.084-24.28h256.868V462.014z M473.092,411.916c-18.16,0-320.693,0-333.985,0v-16.699
			c0-58.786-43.623-107.569-100.195-115.697V50.099c-0.002-9.208,7.489-16.811,16.697-16.811l119-0.001l6.018,44.644h-12.555
			c-9.222,0-16.699,7.477-16.699,16.699s7.477,16.588,16.699,16.588h17.069l4.513,33.51h-13.232
			c-9.222,0-16.699,7.477-16.699,16.699s7.477,16.588,16.699,16.588h17.746l4.513,33.51h-13.909
			c-9.222,0-16.699,7.477-16.699,16.699c0,9.222,7.477,16.588,16.699,16.588h18.424l3.108,23.11
			c3.468,27.44,28.664,46.893,55.907,43.409c20.282-2.531,36.23-16.933,41.775-35.316c4.74,1.494,9.768,2.197,14.965,2.197h37.246
			c64.607,0,116.896,52.392,116.896,117.006V411.916z"/>
	</g>
</g>
</svg>