<?xml version="1.0" encoding="utf-8"?>

<!DOCTYPE svg PUBLIC "-//W3C//DTD SVG 1.1//EN" "http://www.w3.org/Graphics/SVG/1.1/DTD/svg11.dtd">
<!-- Uploaded to: SVG Repo, www.svgrepo.com, Generator: SVG Repo Mixer Tools -->
<svg height="800px" width="800px" version="1.1" id="_x32_" xmlns="http://www.w3.org/2000/svg" xmlns:xlink="http://www.w3.org/1999/xlink" 
	 viewBox="0 0 512 512"  xml:space="preserve">
<style type="text/css">
	.st0{fill:#000000;}
</style>
<g>
	<path class="st0" d="M379.907,332.1c-5.178-13.554-10.494-25.696-14.853-36.577c-4.374-10.881-7.737-20.51-9.278-28.824
		c-0.988-5.262-1.413-10.175-1.413-14.914c0-8.656,1.428-16.773,3.782-25.202c3.515-12.635,9.271-25.916,14.761-41.543
		c5.467-15.619,10.546-33.607,12.24-55.408l0.175-2.331l-0.736-2.225c-14.321-43.403-16.432-79.897-16.424-97.406
		c0-3.706,0.091-6.553,0.182-8.436c0.038-0.942,0.083-1.648,0.114-2.088l0.038-0.486l0.008-0.084v-0.008l1.002-11.086L329.336,0
		l-72.273,109.564L182.55,0.015l-40.055,5.468l1.01,11.086c0,0,0.015,0.228,0.053,0.707c0.091,1.435,0.288,5.019,0.288,10.395
		c0.008,17.51-2.111,54.003-16.432,97.406l-0.728,2.225l0.182,2.331c2.24,29.082,10.532,51.338,17.715,70.321
		c3.599,9.507,6.918,18.201,9.272,26.63c2.369,8.429,3.789,16.546,3.789,25.202c0,4.738-0.425,9.651-1.404,14.914
		c-1.549,8.314-4.914,17.943-9.287,28.824c-13.053,32.697-34.922,76.396-34.906,136.763c0,21.52,2.764,45.119,9.544,71.005
		l2.278,8.709h264.269l2.278-8.709c6.773-25.886,9.544-49.485,9.537-71.005C399.969,392.057,390.256,359.193,379.907,332.1z
		 M369.998,488.689H142.01c-4.723-20.578-6.652-39.257-6.652-56.403c0.016-36.47,8.687-66.062,18.528-91.879
		c4.913-12.901,10.145-24.83,14.708-36.22c4.556-11.39,8.49-22.233,10.555-33.198c1.245-6.659,1.815-13.053,1.815-19.203
		c0-11.268-1.898-21.663-4.655-31.489c-4.16-14.761-10.106-28.33-15.202-42.955c-4.92-14.071-9.135-29.143-10.79-47.375
		c14.602-45.377,16.842-83.283,16.849-102.296c0-0.714-0.015-1.359-0.022-2.02l4.252-0.577l71.794,105.532l-15.202,23.045
		l19.461,12.84l93.269-141.403l4.13,0.562c0,0.661-0.008,1.306-0.008,2.02c0.008,19.014,2.248,56.904,16.835,102.266
		c-2.225,24.542-9.104,43.388-16.06,61.764c-3.568,9.438-7.16,18.755-9.924,28.596c-2.756,9.826-4.647,20.221-4.647,31.489
		c0,6.15,0.57,12.544,1.815,19.203c2.065,10.965,6.006,21.808,10.554,33.198c13.722,34.124,33.213,73.396,33.229,128.099
		C376.642,449.432,374.721,468.111,369.998,488.689z"/>
</g>
</svg>