<?xml version="1.0" encoding="iso-8859-1"?>
<!-- Uploaded to: SVG Repo, www.svgrepo.com, Generator: SVG Repo Mixer Tools -->
<svg fill="#000000" height="800px" width="800px" version="1.1" id="Layer_1" xmlns="http://www.w3.org/2000/svg" xmlns:xlink="http://www.w3.org/1999/xlink" 
	 viewBox="0 0 512 512" xml:space="preserve">
<g transform="translate(1 1)">
	<g>
		<g>
			<path d="M211.907,195.267v68.267c0,5.12,3.413,8.533,8.533,8.533s8.533-3.413,8.533-8.533v-68.267
				c0-5.12-3.413-8.533-8.533-8.533S211.907,190.147,211.907,195.267z"/>
			<path d="M288.707,186.733c-5.12,0-8.533,3.413-8.533,8.533v68.267c0,5.12,3.413,8.533,8.533,8.533
				c5.12,0,8.533-3.413,8.533-8.533v-68.267C297.24,190.147,293.827,186.733,288.707,186.733z"/>
			<path d="M169.24,434.2h85.333h85.333c5.12,0,8.533-3.413,8.533-8.533v-34.133c0-5.12-3.413-8.533-8.533-8.533
				c-17.92,0-34.133-22.187-34.133-51.2c0-5.12-3.413-8.533-8.533-8.533h-42.667h-42.667c-5.12,0-8.533,3.413-8.533,8.533
				c0,29.013-16.213,51.2-34.133,51.2c-5.12,0-8.533,3.413-8.533,8.533v34.133C160.707,430.787,164.12,434.2,169.24,434.2z
				 M331.373,399.213v17.92h-68.267v-76.8h25.6C292.12,370.2,309.187,394.093,331.373,399.213z M177.773,399.213
				c22.187-5.12,39.253-29.013,42.667-58.88h25.6v76.8h-68.267V399.213z"/>
			<path d="M433.773,319c-8.533-58.027-23.04-104.96-43.52-137.387c-1.707-1.707-2.56-3.413-5.12-5.973
				c-3.133-3.133-6.977-6.985-10.228-10.896c-0.003-0.067-0.012-0.127-0.012-0.197c-4.267-6.827-19.627-22.187-33.28-34.133
				l-5.973-60.587C330.52,29.72,295.533-1,254.573-1c-40.96,0-75.947,30.72-81.067,70.827l-5.973,62.293
				c-12.415,10.863-26.238,23.841-31.21,31.238c-0.122,0.11-0.245,0.217-0.363,0.335c-3.413,4.267-7.68,7.68-11.093,11.947
				c-1.707,2.56-3.413,4.267-4.267,5.12C99.267,214.04,84.76,260.973,76.227,319c-8.533,58.027-11.093,118.613-9.387,171.52
				c0,3.035,0,5.395,0,7.68c0,0.285,0,0.569,0,0.853c0,1.159,0,1.921,0,2.56c0,0.302,0,0.579,0,0.853c0,4.267,4.267,7.68,8.533,7.68
				h34.133c3.413,0,6.827-1.707,7.68-5.12l22.112-53.375c1.411,1.327,2.86,2.602,4.341,3.831v38.45
				c0,9.387,7.68,17.067,17.067,17.067H348.44c9.387,0,17.067-7.68,17.067-17.067v-37.757c1.778-1.441,3.514-2.945,5.194-4.525
				l17.211,41.543l4.049,12.685c1.707,3.413,4.267,5.12,7.68,5.12h34.133c2.273,0,4.539-0.976,6.167-2.655
				c1.901-1.405,3.22-3.508,3.22-5.878c0-0.853,0-1.707,0-3.413c0-2.56,0-5.12,0-8.533C444.867,437.613,442.307,377.027,433.773,319
				z M425.24,491.373c0,0.853,0,1.707,0,2.56h-19.627l-10.24-25.6h30.373C425.652,476.148,425.487,483.849,425.24,491.373z
				 M416.707,322.413c6.455,43.25,8.999,87.959,9.119,129.707h-38.6l-4.652-11.093c0.047-1.278,0.092-2.545,0.137-3.813
				c0.417-1.005,0.716-2.009,0.716-3.014c3.87-112.24,2.825-185.86-1.224-229.779C398.514,233.323,409.229,274.226,416.707,322.413z
				 M182.04,143.213c1.707-1.707,2.56-3.413,2.56-5.973l6.827-64.853c3.413-32.427,30.72-56.32,63.147-56.32
				c32.427,0,59.733,23.893,64,56.32l5.973,64.853c0,2.56,1.707,4.267,3.413,5.973c12.8,10.24,28.16,25.6,32.427,31.573
				c0,0,0.042,0.044,0.099,0.108c0.236,0.816,0.495,1.673,0.754,2.452c0.853,4.267,1.707,11.093,3.413,19.627
				c1.747,15.141,3.096,34.26,3.947,57.722c1.216,42.734,0.754,100.941-1.387,176.945c-3.688,4.555-7.874,8.667-12.442,12.27
				c-0.99,0.272-1.976,0.71-2.918,1.383c-12.8,9.387-29.013,14.507-45.227,14.507H203.373c-16.213,0-32.427-5.12-46.08-15.36
				c-0.834-0.596-1.702-1.009-2.578-1.289c-4.038-3.379-7.759-7.22-11.076-11.511c-1.596-45.313-2.355-84.181-2.414-117.231
				c0.094-52.634,1.931-91.063,4.974-117.435c0.853-8.533,1.707-15.36,3.413-19.627c0.412-1.237,0.824-2.671,1.14-3.825
				C154.66,168.036,169.563,153.195,182.04,143.213z M128.041,202.543c-2.28,23.085-3.672,55.371-3.863,97.895
				c-0.32,38.497,0.353,85.044,2.395,140.589l-4.294,10.24H84.293c0.352-41.502,3.231-85.899,9.001-128.853
				C100.935,273.166,111.959,232.371,128.041,202.543z M84.76,493.933c0-0.853,0-1.707,0-2.56c0-0.988,0-2.085,0-3.413
				c0-5.973,0-12.8,0-19.627h30.362l-10.735,25.6H84.76z M348.44,493.933H160.707v-27.212c3.198,1.63,6.489,3.073,9.863,4.322
				c0.074,0.028,0.147,0.056,0.222,0.084c0.769,0.282,1.543,0.553,2.32,0.815c0.098,0.033,0.194,0.068,0.292,0.101
				c9.489,3.165,19.574,4.824,29.971,4.824h103.253c14.851,0,29.068-3.379,41.813-9.711V493.933z"/>
			<path d="M247.747,178.2H261.4c29.013,0,51.2-25.6,46.933-53.76l-6.827-50.347c-2.56-23.04-23.04-40.96-46.933-40.96
				s-44.373,17.92-46.933,40.96l-6.827,50.347C197.4,152.6,219.587,178.2,247.747,178.2z M217.88,127l6.827-50.347
				c1.707-15.36,14.507-26.453,29.867-26.453s28.16,11.093,29.867,26.453L291.267,127c2.56,17.92-11.947,34.133-29.867,34.133
				h-13.653C228.973,161.133,215.32,144.92,217.88,127z"/>
		</g>
	</g>
</g>
</svg>