<?xml version="1.0" encoding="iso-8859-1"?>
<!-- Uploaded to: SVG Repo, www.svgrepo.com, Generator: SVG Repo Mixer Tools -->
<svg fill="#000000" height="800px" width="800px" version="1.1" id="Layer_1" xmlns="http://www.w3.org/2000/svg" xmlns:xlink="http://www.w3.org/1999/xlink" 
	 viewBox="0 0 512.062 512.062" xml:space="preserve">
<g>
	<g>
		<path d="M511.918,401.951c-0.107-0.32-0.213-0.747-0.32-1.28l-96-326.507c-0.96-3.093-3.2-5.653-6.187-6.827l-71.787-29.44
			l-19.52-27.946c-2.027-2.88-5.227-4.48-8.747-4.48V5.364H202.691v0.107c-3.52,0-6.72,1.6-8.747,4.48l-19.52,28.053l-71.787,29.333
			c-2.987,1.28-5.227,3.733-6.187,6.827l-96,326.507c-1.707,5.653,1.6,11.627,7.253,13.227c0.427,0.107,0.853,0.213,1.28,0.32
			l64,10.24c5.013,0.853,10.027-2.027,11.733-6.827l38.613-105.6l-27.2,182.4c-0.853,5.867,3.093,11.307,8.96,12.16
			c0.533,0.107,1.067,0.107,1.6,0.107h298.667c5.867,0,10.667-4.8,10.667-10.667c0-0.533,0-1.067-0.107-1.6l-27.2-182.4
			l38.613,105.6c1.707,4.8,6.72,7.68,11.733,6.827l64-10.24C508.931,413.258,512.878,407.818,511.918,401.951z M315.651,43.658
			l6.293,9.067c1.173,1.707,2.773,2.987,4.693,3.733l8.427,3.413c-1.173,22.933-10.347,78.933-68.373,112.213v-37.759
			C296.344,109.685,309.678,70.005,315.651,43.658z M245.252,485.365L245.252,485.365H119.064l40.853-273.92
			c0.853-5.867-3.093-11.307-8.96-12.16c-5.013-0.747-9.92,2.133-11.627,6.933l-71.68,195.84l-43.307-6.933l91.095-309.974
			l44.907-18.453c2.027,31.68,15.04,95.573,84.907,128V485.365z M245.358,171.125c-59.2-32.64-64.427-91.84-64.213-113.067
			l4.053-1.707c1.92-0.853,3.52-2.133,4.693-3.84l6.4-9.067c5.973,26.453,19.413,66.347,49.067,90.987V171.125z M256.024,115.231
			c-27.413-25.173-37.653-68.053-41.067-88.533h82.24C293.678,47.178,283.438,90.058,256.024,115.231z M444.398,402.058
			l-71.68-195.84c-2.027-5.547-8.107-8.427-13.653-6.4c-4.8,1.707-7.68,6.613-6.933,11.627l40.853,273.92H266.691v-288.96
			c69.973-33.92,85.653-95.893,88.96-128l40.853,16.747l91.093,309.973L444.398,402.058z"/>
	</g>
</g>
</svg>