<?xml version="1.0" encoding="iso-8859-1"?>
<!-- Uploaded to: SVG Repo, www.svgrepo.com, Generator: SVG Repo Mixer Tools -->
<svg fill="#000000" height="800px" width="800px" version="1.1" id="Layer_1" xmlns="http://www.w3.org/2000/svg" xmlns:xlink="http://www.w3.org/1999/xlink" 
	 viewBox="0 0 511.997 511.997" xml:space="preserve">
<g transform="translate(1 1)">
	<g>
		<path d="M357.399-1h-204.8c-4.713,0-8.533,3.82-8.533,8.533v59.731v0.003v59.731v358.4c0,14.142,11.458,25.6,25.6,25.6h43.11
			c13.876,0,25.23-11.059,25.589-24.927l7.646-290.59c0.131-4.866,4.118-8.749,8.989-8.749c4.87,0,8.857,3.883,8.989,8.755
			l7.646,290.588c0.358,13.864,11.713,24.923,25.589,24.923h43.11c14.142,0,25.6-11.458,25.6-25.6v-358.4V67.267v-0.003V7.533
			C365.932,2.82,362.112-1,357.399-1z M323.265,75.8h25.6v41.588c-14.72-3.79-25.6-17.156-25.6-33.057V75.8z M314.732,58.731
			h-59.733h-59.733h-34.133V41.664h187.733v17.067H314.732z M161.132,75.8h25.6v8.531c0,15.901-10.88,29.267-25.6,33.057V75.8z
			 M348.865,16.067v8.531H161.132v-8.531H348.865z M228.95,195.025l-7.646,290.6c-0.119,4.619-3.904,8.305-8.528,8.305h-43.11
			c-4.716,0-8.533-3.817-8.533-8.533V297.664h8.533c4.713,0,8.533-3.82,8.533-8.533s-3.821-8.533-8.533-8.533h-8.533v-17.067h25.6
			c4.713,0,8.533-3.82,8.533-8.533s-3.82-8.533-8.533-8.533h-25.6V134.809c24.211-4.065,42.667-25.114,42.667-50.478V75.8h42.667
			v95.295C236.493,174.551,229.25,183.898,228.95,195.025z M340.332,493.931h-43.11c-4.624,0-8.408-3.686-8.528-8.302
			l-7.646-290.598c-0.3-11.132-7.544-20.48-17.516-23.936V75.8h42.667v8.531c0,25.365,18.456,46.413,42.667,50.478v350.588
			C348.865,490.114,345.049,493.931,340.332,493.931z"/>
	</g>
</g>
</svg>